<mxfile host="app.diagrams.net" modified="2021-06-06T21:33:22.189Z" agent="5.0 (Macintosh; Intel Mac OS X 10_15_7) AppleWebKit/537.36 (KHTML, like Gecko) Chrome/88.0.4324.146 Safari/537.36" etag="cbCIsIYac7-HqUcwwTxv" version="14.7.6" type="github">
  <diagram id="eTOrd28SFSVHFkk1oKiq" name="Page-1">
    <mxGraphModel dx="1186" dy="572" grid="1" gridSize="10" guides="1" tooltips="1" connect="1" arrows="1" fold="1" page="1" pageScale="1" pageWidth="850" pageHeight="1100" math="0" shadow="0">
      <root>
        <mxCell id="0" />
        <mxCell id="1" parent="0" />
        <mxCell id="l6Fxqc2PCi2cFwlAU66c-1" value="SQL" style="shape=cylinder3;whiteSpace=wrap;html=1;boundedLbl=1;backgroundOutline=1;size=15;" vertex="1" parent="1">
          <mxGeometry x="430" y="240" width="60" height="80" as="geometry" />
        </mxCell>
        <mxCell id="l6Fxqc2PCi2cFwlAU66c-5" style="edgeStyle=orthogonalEdgeStyle;rounded=0;orthogonalLoop=1;jettySize=auto;html=1;" edge="1" parent="1" source="l6Fxqc2PCi2cFwlAU66c-2" target="l6Fxqc2PCi2cFwlAU66c-3">
          <mxGeometry relative="1" as="geometry" />
        </mxCell>
        <mxCell id="l6Fxqc2PCi2cFwlAU66c-2" value="LB" style="rounded=0;whiteSpace=wrap;html=1;" vertex="1" parent="1">
          <mxGeometry x="150" y="240" width="50" height="60" as="geometry" />
        </mxCell>
        <mxCell id="l6Fxqc2PCi2cFwlAU66c-4" style="edgeStyle=orthogonalEdgeStyle;rounded=0;orthogonalLoop=1;jettySize=auto;html=1;" edge="1" parent="1" source="l6Fxqc2PCi2cFwlAU66c-3" target="l6Fxqc2PCi2cFwlAU66c-1">
          <mxGeometry relative="1" as="geometry" />
        </mxCell>
        <mxCell id="l6Fxqc2PCi2cFwlAU66c-3" value="Service" style="whiteSpace=wrap;html=1;aspect=fixed;" vertex="1" parent="1">
          <mxGeometry x="260" y="240" width="80" height="80" as="geometry" />
        </mxCell>
        <mxCell id="l6Fxqc2PCi2cFwlAU66c-6" value="Service" style="whiteSpace=wrap;html=1;aspect=fixed;" vertex="1" parent="1">
          <mxGeometry x="270" y="250" width="80" height="80" as="geometry" />
        </mxCell>
        <mxCell id="l6Fxqc2PCi2cFwlAU66c-7" value="SQL" style="shape=cylinder3;whiteSpace=wrap;html=1;boundedLbl=1;backgroundOutline=1;size=15;" vertex="1" parent="1">
          <mxGeometry x="440" y="250" width="60" height="80" as="geometry" />
        </mxCell>
        <mxCell id="l6Fxqc2PCi2cFwlAU66c-12" style="edgeStyle=orthogonalEdgeStyle;rounded=0;orthogonalLoop=1;jettySize=auto;html=1;" edge="1" parent="1" source="l6Fxqc2PCi2cFwlAU66c-8" target="l6Fxqc2PCi2cFwlAU66c-10">
          <mxGeometry relative="1" as="geometry" />
        </mxCell>
        <mxCell id="l6Fxqc2PCi2cFwlAU66c-8" value="User" style="shape=umlActor;verticalLabelPosition=bottom;verticalAlign=top;html=1;outlineConnect=0;" vertex="1" parent="1">
          <mxGeometry x="40" y="130" width="30" height="60" as="geometry" />
        </mxCell>
        <mxCell id="l6Fxqc2PCi2cFwlAU66c-11" style="edgeStyle=orthogonalEdgeStyle;rounded=0;orthogonalLoop=1;jettySize=auto;html=1;entryX=0.5;entryY=0;entryDx=0;entryDy=0;" edge="1" parent="1" source="l6Fxqc2PCi2cFwlAU66c-10" target="l6Fxqc2PCi2cFwlAU66c-2">
          <mxGeometry relative="1" as="geometry" />
        </mxCell>
        <mxCell id="l6Fxqc2PCi2cFwlAU66c-10" value="Client" style="whiteSpace=wrap;html=1;aspect=fixed;" vertex="1" parent="1">
          <mxGeometry x="120" y="100" width="80" height="80" as="geometry" />
        </mxCell>
      </root>
    </mxGraphModel>
  </diagram>
</mxfile>
